<?xml version="1.0" encoding="utf-8"?>
<!-- Generator: Adobe Illustrator 16.0.0, SVG Export Plug-In . SVG Version: 6.00 Build 0)  -->
<!DOCTYPE svg PUBLIC "-//W3C//DTD SVG 1.1//EN" "http://www.w3.org/Graphics/SVG/1.1/DTD/svg11.dtd">
<svg version="1.1" id="Layer_1" xmlns="http://www.w3.org/2000/svg" xmlns:xlink="http://www.w3.org/1999/xlink" x="0px" y="0px"
	 width="152px" height="33.139px" viewBox="0 0 152 33.139" enable-background="new 0 0 152 33.139" xml:space="preserve">
<g>
	<path d="M82.856,15.727c-0.565-3.603-3.138-6.131-7.469-6.131h-6.727v6.896v0.17v5.856h0.009c0,2.207,0.006,4.418-0.009,6.631
		c0,0.406,0.111,0.58,0.536,0.566c0.616-0.027,1.235-0.027,1.851,0c0.422,0.014,0.553-0.156,0.549-0.563
		c-0.02-1.576,0.006-3.148-0.02-4.719c-0.004-0.467,0.132-0.635,0.607-0.627c1.215,0.021,2.429,0.02,3.644,0.002
		C80.284,23.775,83.538,20.121,82.856,15.727 M76.173,20.771h-0.024c-0.108,0.01-0.213,0.021-0.325,0.021
		c-0.573,0.012-1.149,0-1.729,0c-0.639,0-1.272,0.008-1.913,0.008c-0.617,0-0.605-0.162-0.596-0.613
		c0.02-1.204-0.004-2.407,0.007-3.612c-0.012-1.207,0.013-2.144-0.007-3.345c-0.011-0.456,0-0.607,0.578-0.607
		c0.646,0,3.022-0.007,3.66,0c0.109,0,0.216,0.015,0.318,0.021c0.013,0.001,0.024,0.001,0.031,0.001
		c2.222,0.197,3.853,1.768,3.841,3.931C80.026,18.731,78.396,20.574,76.173,20.771"/>
	<path d="M106.169,18.589h2.469c0.229-1,0.286-2.051,0.129-3.14c-0.347-2.381-1.752-4.354-3.615-5.442
		c-0.858-0.5-1.818-0.824-2.813-0.905h-0.738c-0.053-0.003-0.1-0.003-0.151-0.005c-0.048,0.001-0.097,0.001-0.151,0.005h-0.736
		c-0.994,0.081-1.955,0.406-2.813,0.905c-1.863,1.088-3.266,3.062-3.613,5.442c-0.679,4.709,2.571,8.807,7.029,8.85
		c1.21,0.014,4.508,0.021,5.716-0.006c0.151-0.004,0.261,0.02,0.353,0.053v-3.199c-0.088,0.029-0.198,0.047-0.346,0.033
		c-0.637-0.041-3.353-0.006-3.988-0.016c-0.58,0-1.154,0.012-1.73,0c-0.111,0-0.218-0.01-0.325-0.02h-0.024
		c-1.559-0.146-2.822-1.166-3.438-2.556h8.152H106.169L106.169,18.589z M97.082,15.632c0.392-1.85,1.843-3.306,3.733-3.486
		c0.012,0,0.021,0,0.027-0.001c0.107-0.014,0.213-0.021,0.323-0.026h0.283h0.282c0.11,0.006,0.218,0.013,0.322,0.026
		c0.012,0.001,0.018,0.001,0.026,0.001c1.894,0.181,3.349,1.637,3.735,3.486H97.082L97.082,15.632z"/>
	<path d="M149.897,11.339c-1.369-1.385-3.221-2.157-5.211-2.161h-0.035c-1.955,0-3.784,0.751-5.162,2.119
		c-1.385,1.379-2.152,3.228-2.157,5.208c-0.007,4.101,3.211,7.325,7.327,7.339h0.027c4.082,0,7.299-3.18,7.313-7.255
		C152.017,14.588,151.265,12.723,149.897,11.339 M148.989,16.509c0,2.34-1.858,4.235-4.174,4.315c-0.045,0-0.08,0.008-0.127,0.008
		h-0.012h-0.011c-2.382,0-4.315-1.935-4.315-4.323v-0.041v-0.042c0-0.355,0.058-0.711,0.154-1.049
		c0.498-1.83,2.176-3.183,4.163-3.183h0.007h0.016c0.098,0,0.192,0.011,0.289,0.013c1.756,0.124,3.223,1.306,3.772,2.903
		c0.011,0.038,0.03,0.077,0.041,0.111c0,0.012,0.003,0.018,0.003,0.025c0.126,0.377,0.194,0.765,0.194,1.179
		c0,0.014-0.003,0.029-0.003,0.044C148.985,16.481,148.989,16.497,148.989,16.509"/>
	<path d="M94.884,9.598h-1.783c-0.314,0-0.646-0.002-1.067-0.002c-2.257,0-4.521-0.234-6.183,1.43
		c-1.383,1.385-1.812,3.393-1.793,5.182c0.021,2.33,0,7.267,0,7.606h3.021c0-1.027-0.014-5.505-0.005-7.773
		c0-2.299,1.274-3.415,5.087-3.415h2.329c0.06,0,0.104,0,0.142-0.007h0.253L94.884,9.598L94.884,9.598z"/>
	<path d="M67.146,12.272V9.598h-3.014l-0.014,8.379c0,2.095-2.036,3.384-4.108,3.397c-1.926,0.014-3.93-1.244-3.93-3.353
		c0-2.322-0.019-8.112-0.019-8.329V9.599h-3.02v0.096v0.627v0.146v3.611h0.009c0,1.319,0,2.556-0.016,3.848
		c-0.014,1.047,0.255,2.003,0.748,2.909c1.972,3.639,6.292,4.207,9.321,2.98c2.594-1.051,4.061-3.824,4.061-6.116
		C67.167,15.825,67.154,13.808,67.146,12.272"/>
	<path d="M51.932,18.29c-0.446-1.878-2.056-3.058-3.987-3.07c-0.238-0.004-0.482-0.004-0.724-0.004v-0.002h-4.629h-0.391
		c-0.581-0.002-1.132-0.522-1.275-1.042c-0.131-0.472,0.109-1.111,0.601-1.348c0.284-0.133,0.637-0.185,0.958-0.187
		c1.915-0.021,3.829-0.015,5.742-0.015h0.43h1.131h1.085h0.021V9.596h-8.631v0.019h-0.237c-1.05,0-1.937,0.395-2.636,1.188
		c-1.385,1.563-1.369,4.512,0.035,6.068c0.746,0.823,1.665,1.37,2.793,1.358c0.182,0,0.358,0,0.536,0h3.718
		c0.534,0,1.071,0,1.606,0.012c1.153,0.004,1.738,0.754,1.326,1.782c-0.254,0.635-0.777,0.758-1.385,0.758
		c-2.028,0-4.057,0.002-6.091,0.002c-0.626,0-1.251-0.018-1.875,0.018h-0.009h-0.526v3.014h0.23c0.08,0.016,0.143,0.02,0.2,0.02
		c2.85,0,5.7,0.02,8.56-0.02c0.463-0.002,0.964-0.17,1.389-0.375C51.648,22.564,52.446,20.478,51.932,18.29"/>
	<path d="M122.76,18.29c-0.44-1.878-2.054-3.058-3.981-3.07c-0.239-0.004-0.479-0.004-0.723-0.004v-0.002h-4.633h-0.389
		c-0.584-0.002-1.135-0.522-1.276-1.042c-0.133-0.472,0.114-1.111,0.601-1.348c0.285-0.133,0.639-0.185,0.959-0.187
		c1.914-0.021,3.83-0.015,5.74-0.015h0.432h1.128h1.087h0.023V9.596h-8.636v0.019h-0.233c-1.053,0-1.936,0.395-2.638,1.188
		c-1.38,1.563-1.368,4.512,0.037,6.068c0.744,0.823,1.664,1.37,2.792,1.358c0.182,0,0.358,0,0.54,0h3.712
		c0.537,0,1.074,0,1.608,0.012c1.155,0.004,1.739,0.754,1.327,1.782c-0.256,0.635-0.778,0.758-1.381,0.758
		c-2.03,0-4.063,0.002-6.092,0.002c-0.629,0-1.257-0.018-1.878,0.018h-0.013h-0.53v3.014h0.239c0.08,0.016,0.139,0.02,0.199,0.02
		c2.852,0,5.699,0.02,8.554-0.02c0.466-0.002,0.97-0.17,1.394-0.375C122.479,22.564,123.28,20.478,122.76,18.29"/>
	<path d="M136.49,18.29c-0.441-1.878-2.056-3.058-3.987-3.07c-0.238-0.004-0.48-0.004-0.725-0.004v-0.002h-4.629h-0.396
		c-0.576-0.002-1.126-0.522-1.271-1.042c-0.138-0.472,0.115-1.111,0.602-1.348c0.282-0.133,0.633-0.185,0.956-0.187
		c1.916-0.021,3.833-0.015,5.746-0.015h0.427h1.128h1.087h0.023V9.596h-8.631v0.019h-0.239c-1.054,0-1.935,0.395-2.638,1.188
		c-1.385,1.563-1.365,4.512,0.033,6.068c0.746,0.823,1.666,1.37,2.795,1.358c0.178,0,0.357,0,0.537,0h3.717
		c0.533,0,1.07,0,1.605,0.012c1.155,0.004,1.738,0.754,1.329,1.782c-0.251,0.635-0.776,0.758-1.381,0.758
		c-2.033,0-4.063,0.002-6.093,0.002c-0.629,0-1.256-0.018-1.875,0.018h-0.01h-0.527v3.014h0.229c0.083,0.016,0.143,0.02,0.205,0.02
		c2.852,0,5.702,0.02,8.561-0.02c0.463-0.002,0.959-0.17,1.389-0.375C136.204,22.564,137.004,20.478,136.49,18.29"/>
</g>
<path fill="#FF5000" d="M0.001,16.57c0,9.15,7.419,16.568,16.57,16.568c9.15,0,16.568-7.418,16.568-16.568
	C33.14,7.418,25.722,0,16.571,0C7.42,0,0.001,7.418,0.001,16.57"/>
<path fill="#FFFFFF" d="M13.414,15.562c-0.146-0.922-0.805-1.57-1.913-1.57H9.776v1.767v0.043v1.5h0.002
	c0,0.566,0.001,1.133-0.002,1.699c0,0.104,0.029,0.148,0.139,0.146c0.157-0.008,0.315-0.008,0.474,0
	c0.108,0.002,0.142-0.041,0.141-0.145c-0.005-0.404,0.001-0.807-0.005-1.209c-0.001-0.119,0.034-0.164,0.156-0.162
	c0.312,0.008,0.622,0.006,0.933,0.002C12.754,17.624,13.588,16.687,13.414,15.562 M11.702,16.855h-0.007
	c-0.027,0.002-0.055,0.006-0.083,0.006c-0.146,0.002-0.295,0-0.442,0c-0.164,0-0.326,0.002-0.49,0.002
	c-0.158,0-0.155-0.043-0.152-0.158c0.006-0.309-0.001-0.617,0.001-0.926c-0.003-0.311,0.004-0.549-0.001-0.855
	c-0.003-0.117,0-0.156,0.148-0.156c0.166,0,0.775-0.002,0.938,0c0.028,0,0.056,0.004,0.082,0.006c0.004,0,0.007,0,0.009,0
	c0.568,0.051,0.986,0.453,0.983,1.008C12.688,16.331,12.271,16.802,11.702,16.855"/>
<path fill="#FFFFFF" d="M19.385,17.046h0.632c0.06-0.256,0.073-0.523,0.033-0.805c-0.088-0.609-0.449-1.115-0.926-1.393
	c-0.221-0.129-0.466-0.211-0.721-0.232h-0.188c-0.013-0.002-0.025-0.002-0.039-0.002c-0.012,0-0.024,0-0.039,0.002h-0.188
	c-0.256,0.021-0.502,0.104-0.722,0.232c-0.477,0.277-0.836,0.783-0.925,1.393c-0.174,1.207,0.658,2.255,1.8,2.267
	c0.311,0.004,1.155,0.006,1.464-0.002c0.039,0,0.067,0.006,0.091,0.016v-0.82c-0.022,0.008-0.052,0.012-0.09,0.01
	c-0.163-0.012-0.857-0.002-1.021-0.004c-0.149,0-0.296,0.002-0.443,0c-0.027,0-0.056-0.004-0.083-0.006h-0.006
	c-0.398-0.037-0.723-0.299-0.88-0.654h2.088h0.162V17.046z M17.057,16.29c0.102-0.475,0.473-0.848,0.957-0.893
	c0.002,0,0.005,0,0.007-0.002c0.028-0.002,0.056-0.004,0.083-0.006h0.072h0.072c0.028,0.002,0.056,0.004,0.083,0.006
	c0.003,0.002,0.004,0.002,0.007,0.002c0.484,0.045,0.857,0.418,0.957,0.893H17.057z"/>
<path fill="#FFFFFF" d="M30.587,15.243c-0.352-0.354-0.825-0.551-1.335-0.553h-0.009c-0.501,0-0.971,0.191-1.323,0.543
	c-0.354,0.354-0.551,0.826-0.553,1.334c-0.001,1.05,0.822,1.876,1.877,1.88h0.007c1.046,0,1.87-0.816,1.874-1.859
	C31.129,16.077,30.937,15.599,30.587,15.243 M30.354,16.57c0,0.597-0.476,1.083-1.068,1.103c-0.012,0-0.021,0.002-0.032,0.002H29.25
	h-0.002c-0.61,0-1.106-0.494-1.106-1.105v-0.012v-0.012c0-0.092,0.016-0.182,0.04-0.27c0.127-0.469,0.557-0.814,1.066-0.814h0.001
	h0.004c0.024,0,0.049,0.002,0.074,0.004c0.449,0.031,0.824,0.334,0.966,0.744c0.003,0.01,0.008,0.02,0.011,0.027
	c0,0.004,0,0.004,0,0.006c0.032,0.098,0.05,0.197,0.05,0.303c0,0.004,0,0.008,0,0.012C30.353,16.562,30.354,16.566,30.354,16.57"/>
<path fill="#FFFFFF" d="M16.494,14.749h-0.457c-0.081,0-0.166,0-0.273,0c-0.578,0-1.159-0.061-1.584,0.367
	c-0.354,0.354-0.464,0.869-0.459,1.326c0.005,0.598,0,1.861,0,1.949h0.773c0-0.264-0.003-1.41-0.001-1.992
	c0-0.588,0.326-0.875,1.303-0.875h0.597c0.017,0,0.027,0,0.037,0h0.064V14.749z"/>
<path fill="#FFFFFF" d="M9.389,15.359v-0.686H8.617L8.613,16.82c0,0.537-0.521,0.867-1.053,0.871
	c-0.493,0.002-1.007-0.32-1.007-0.859c0-0.596-0.004-2.078-0.004-2.133v-0.025H5.776v0.025v0.16v0.037v0.926h0.002
	c0,0.336,0,0.654-0.004,0.984c-0.003,0.267,0.065,0.513,0.192,0.744c0.505,0.934,1.612,1.078,2.388,0.766
	c0.664-0.271,1.04-0.98,1.04-1.568C9.395,16.269,9.392,15.751,9.389,15.359"/>
<path fill="#FFFFFF" d="M5.492,16.972c-0.114-0.48-0.526-0.783-1.021-0.787c-0.062,0-0.124,0-0.185,0v-0.002H3.1H3
	c-0.149,0-0.29-0.135-0.327-0.268c-0.034-0.121,0.028-0.285,0.154-0.346c0.072-0.033,0.162-0.047,0.245-0.047
	c0.49-0.006,0.98-0.004,1.472-0.004h0.109h0.29h0.278h0.006v-0.775H3.015v0.006H2.954c-0.27,0-0.496,0.102-0.676,0.303
	c-0.354,0.4-0.351,1.156,0.01,1.557c0.19,0.211,0.426,0.35,0.715,0.348c0.046,0,0.092,0,0.137,0h0.953c0.137,0,0.274,0,0.412,0.004
	c0.295,0,0.445,0.191,0.34,0.455c-0.065,0.164-0.2,0.195-0.355,0.195c-0.52,0-1.038,0-1.56,0c-0.161,0-0.321-0.004-0.479,0.004
	H2.446H2.312v0.771h0.06c0.021,0.006,0.037,0.006,0.051,0.006c0.729,0,1.46,0.004,2.192-0.006c0.118,0,0.247-0.043,0.355-0.096
	C5.419,18.067,5.624,17.532,5.492,16.972"/>
<path fill="#FFFFFF" d="M23.635,16.972c-0.113-0.48-0.526-0.783-1.021-0.787c-0.062,0-0.122,0-0.185,0v-0.002h-1.187h-0.101
	c-0.149,0-0.291-0.135-0.327-0.268c-0.033-0.121,0.029-0.285,0.154-0.346c0.073-0.033,0.164-0.047,0.246-0.047
	c0.49-0.006,0.98-0.004,1.47-0.004h0.111h0.289h0.277h0.007v-0.775h-2.212v0.006h-0.061c-0.27,0-0.496,0.102-0.675,0.303
	c-0.354,0.4-0.352,1.156,0.009,1.557c0.19,0.211,0.426,0.35,0.715,0.348c0.046,0,0.092,0,0.139,0h0.95c0.139,0,0.275,0,0.412,0.004
	c0.296,0,0.445,0.191,0.34,0.455c-0.064,0.164-0.199,0.195-0.354,0.195c-0.521,0-1.041,0-1.562,0c-0.16,0-0.321-0.004-0.48,0.004
	h-0.001h-0.136v0.771h0.061c0.021,0.006,0.036,0.006,0.051,0.006c0.73,0,1.46,0.004,2.191-0.006c0.12,0,0.249-0.043,0.356-0.096
	C23.563,18.067,23.769,17.532,23.635,16.972"/>
<path fill="#FFFFFF" d="M27.151,16.972c-0.112-0.48-0.525-0.783-1.021-0.787c-0.062,0-0.123,0-0.187,0v-0.002h-1.186h-0.101
	c-0.148,0-0.289-0.135-0.326-0.268c-0.035-0.121,0.029-0.285,0.153-0.346c0.072-0.033,0.162-0.047,0.245-0.047
	c0.491-0.006,0.981-0.004,1.473-0.004h0.108h0.289h0.278h0.006v-0.775h-2.211v0.006h-0.062c-0.27,0-0.495,0.102-0.676,0.303
	c-0.354,0.4-0.35,1.156,0.009,1.557c0.191,0.211,0.428,0.35,0.717,0.348c0.045,0,0.092,0,0.138,0h0.952c0.137,0,0.273,0,0.412,0.004
	c0.296,0,0.444,0.191,0.341,0.455c-0.064,0.164-0.199,0.195-0.354,0.195c-0.521,0-1.041,0-1.561,0c-0.161,0-0.322-0.004-0.48,0.004
	h-0.002h-0.135v0.771h0.059c0.021,0.006,0.037,0.006,0.054,0.006c0.729,0,1.46,0.004,2.191-0.006c0.119,0,0.246-0.043,0.356-0.096
	C27.079,18.067,27.284,17.532,27.151,16.972"/>
</svg>
