<?xml version="1.0" encoding="utf-8"?>
<!-- Generator: Adobe Illustrator 16.0.0, SVG Export Plug-In . SVG Version: 6.00 Build 0)  -->
<!DOCTYPE svg PUBLIC "-//W3C//DTD SVG 1.1//EN" "http://www.w3.org/Graphics/SVG/1.1/DTD/svg11.dtd">
<svg version="1.1" id="Layer_1" xmlns="http://www.w3.org/2000/svg" xmlns:xlink="http://www.w3.org/1999/xlink" x="0px" y="0px"
	 width="648.443px" height="136.238px" viewBox="0 0 648.443 136.238" enable-background="new 0 0 648.443 136.238"
	 xml:space="preserve">
<g>
	<path fill="#0062CC" d="M73.247,71.075v54.667c29.554-2.596,52.736-27.395,52.736-57.624c0-8.603-1.891-16.758-5.259-24.095
		L73.247,71.075z"/>
	<path fill="#001ECC" d="M15.505,44.043c-3.361,7.333-5.25,15.484-5.25,24.078c0,30.229,23.184,55.025,52.737,57.622V71.1
		L15.505,44.043z"/>
	<path fill="#007BFF" d="M115.639,35.117C105.188,20.095,87.81,10.254,68.12,10.254c-19.695,0-37.082,9.849-47.533,24.882
		l47.51,27.073L115.639,35.117z"/>
	<path fill="#D1D3D4" d="M68.119,0C30.499,0,0,30.499,0,68.12c0,37.619,30.499,68.118,68.119,68.118
		c37.62,0,68.119-30.5,68.119-68.118C136.236,30.499,105.74,0,68.119,0z M62.993,125.742c-29.554-2.594-52.736-27.395-52.736-57.622
		c0-8.594,1.889-16.744,5.25-24.078L62.993,71.1V125.742L62.993,125.742z M68.096,62.206l-47.509-27.07
		c10.451-15.034,27.837-24.883,47.532-24.883c19.688,0,37.069,9.842,47.519,24.865L68.096,62.206z M125.983,68.12
		c0,30.228-23.182,55.026-52.736,57.622V71.077l47.479-27.053C124.092,51.361,125.983,59.517,125.983,68.12z"/>
</g>
<g>
	<path d="M199.033,65.858c-1.229,2.402-2.89,4.411-4.983,6.029c-2.094,1.621-4.537,2.835-7.329,3.644
		c-2.792,0.811-5.751,1.216-8.877,1.216h-14.239v20.687h-6.616V38.807h21.943c3.293,0,6.294,0.433,9.003,1.298
		c2.708,0.866,5.025,2.094,6.951,3.686c1.927,1.591,3.405,3.546,4.439,5.862c1.032,2.317,1.55,4.928,1.55,7.831
		C200.876,60.666,200.26,63.458,199.033,65.858z M189.935,48.145c-2.884-2.148-6.706-3.225-11.464-3.225h-14.865v25.796h14.529
		c2.408,0,4.605-0.306,6.593-0.921c1.986-0.613,3.694-1.493,5.122-2.639c1.428-1.144,2.519-2.513,3.275-4.104
		c0.757-1.592,1.135-3.363,1.135-5.318C194.259,53.492,192.817,50.295,189.935,48.145z"/>
	<path d="M244.929,97.434l-17.001-22.781h-16.751v22.781h-6.616V38.807h25.209c3.238,0,6.156,0.42,8.752,1.257
		c2.596,0.838,4.815,2.024,6.658,3.562c1.843,1.536,3.267,3.38,4.271,5.53c1.005,2.151,1.508,4.539,1.508,7.164
		c0,2.458-0.392,4.651-1.173,6.577c-0.782,1.928-1.885,3.604-3.308,5.027c-1.424,1.426-3.113,2.612-5.067,3.563
		c-1.955,0.951-4.076,1.621-6.365,2.011l18.007,23.937H244.929z M240.396,47.988c-2.63-2.045-6.325-3.068-11.083-3.068h-18.136
		v23.87h18.053c2.183,0,4.197-0.28,6.044-0.84c1.848-0.561,3.443-1.36,4.787-2.396c1.343-1.036,2.392-2.312,3.148-3.824
		c0.755-1.513,1.133-3.222,1.133-5.127C244.343,52.904,243.026,50.033,240.396,47.988z"/>
	<path d="M311.344,97.434h-7.119l-6.868-15.494h-31.91l-6.951,15.494h-6.784l26.717-59.046h6.198L311.344,97.434z M281.444,46.177
		l-13.4,29.899h26.717L281.444,46.177z"/>
	<path d="M365.029,79.678c-1.507,3.574-3.643,6.673-6.407,9.296c-2.764,2.626-6.059,4.69-9.883,6.199
		c-3.825,1.507-8.027,2.261-12.604,2.261H313.27V38.807h22.864c4.578,0,8.78,0.74,12.604,2.22c3.824,1.479,7.119,3.531,9.883,6.155
		c2.764,2.625,4.899,5.71,6.407,9.254c1.508,3.547,2.261,7.385,2.261,11.518v0.167C367.29,72.253,366.537,76.104,365.029,79.678z
		 M353.806,68.12c0-2.568-0.434-4.942-1.298-7.119c-0.866-2.178-2.066-4.048-3.602-5.611c-1.536-1.563-3.392-2.777-5.569-3.644
		c-2.177-0.865-4.579-1.298-7.203-1.298h-9.966v35.343h9.966c2.624,0,5.025-0.419,7.203-1.256c2.178-0.838,4.034-2.037,5.569-3.602
		c1.535-1.563,2.736-3.404,3.602-5.527c0.865-2.121,1.298-4.494,1.298-7.118V68.12z"/>
	<path d="M407.072,97.434V73.898h-23.786v23.535h-12.898V38.807h12.898v23.199h23.786V38.807h12.897v58.627H407.072z"/>
	<path d="M483.035,79.887c-1.563,3.658-3.727,6.868-6.49,9.632s-6.059,4.941-9.883,6.533c-3.824,1.591-7.998,2.386-12.521,2.386
		c-4.521,0-8.682-0.795-12.479-2.386c-3.799-1.592-7.078-3.74-9.842-6.45c-2.764-2.706-4.912-5.89-6.447-9.547
		c-1.537-3.657-2.305-7.579-2.305-11.767V68.12c0-4.188,0.781-8.11,2.346-11.768c1.563-3.656,3.727-6.868,6.49-9.632
		s6.059-4.941,9.883-6.532s8-2.388,12.52-2.388c4.525,0,8.682,0.797,12.482,2.388c3.795,1.591,7.076,3.741,9.84,6.448
		c2.764,2.709,4.912,5.893,6.449,9.548c1.533,3.658,2.303,7.58,2.303,11.769v0.167C485.381,72.308,484.598,76.23,483.035,79.887z
		 M471.896,68.12c0-2.514-0.432-4.886-1.299-7.119c-0.865-2.233-2.094-4.188-3.684-5.863c-1.592-1.675-3.477-3.001-5.654-3.978
		s-4.551-1.466-7.119-1.466c-2.625,0-5.012,0.475-7.16,1.424c-2.15,0.949-3.992,2.261-5.527,3.937
		c-1.537,1.675-2.738,3.615-3.602,5.82c-0.867,2.206-1.299,4.564-1.299,7.078v0.167c0,2.512,0.432,4.887,1.299,7.118
		c0.863,2.234,2.094,4.188,3.686,5.862c1.59,1.676,3.461,3.003,5.609,3.979c2.15,0.979,4.537,1.467,7.16,1.467
		c2.57,0,4.943-0.474,7.121-1.425c2.176-0.948,4.033-2.261,5.57-3.937c1.535-1.675,2.734-3.613,3.6-5.82
		c0.867-2.204,1.299-4.564,1.299-7.076V68.12z"/>
	<path d="M526.336,97.434L508.16,72.476l-6.783,7.034v17.924h-12.898V38.807h12.898v25.628l23.785-25.628h15.58l-23.871,24.874
		l24.959,33.753H526.336z"/>
	<path d="M598.611,79.887c-1.563,3.658-3.727,6.868-6.488,9.632c-2.766,2.764-6.061,4.941-9.887,6.533
		c-3.822,1.591-7.996,2.386-12.52,2.386c-4.521,0-8.682-0.795-12.479-2.386c-3.799-1.592-7.078-3.74-9.84-6.45
		c-2.766-2.706-4.914-5.89-6.449-9.547c-1.537-3.657-2.303-7.579-2.303-11.767V68.12c0-4.188,0.779-8.11,2.344-11.768
		c1.563-3.656,3.727-6.868,6.492-9.632c2.762-2.764,6.057-4.941,9.883-6.532c3.822-1.591,7.998-2.388,12.52-2.388
		c4.523,0,8.682,0.797,12.479,2.388s7.076,3.741,9.842,6.448c2.764,2.709,4.912,5.893,6.447,9.548
		c1.537,3.658,2.303,7.58,2.303,11.769v0.167C600.955,72.308,600.174,76.23,598.611,79.887z M587.473,68.12
		c0-2.514-0.434-4.886-1.297-7.119c-0.867-2.233-2.094-4.188-3.688-5.863c-1.592-1.675-3.475-3.001-5.652-3.978
		c-2.176-0.977-4.553-1.466-7.119-1.466c-2.625,0-5.01,0.475-7.162,1.424c-2.146,0.949-3.992,2.261-5.525,3.937
		c-1.535,1.675-2.736,3.615-3.604,5.82c-0.865,2.206-1.297,4.564-1.297,7.078v0.167c0,2.512,0.432,4.887,1.297,7.118
		c0.867,2.234,2.096,4.188,3.688,5.862c1.59,1.676,3.461,3.003,5.609,3.979c2.15,0.979,4.537,1.467,7.162,1.467
		c2.566,0,4.941-0.474,7.119-1.425c2.178-0.948,4.031-2.261,5.568-3.937c1.535-1.675,2.736-3.613,3.604-5.82
		c0.863-2.204,1.297-4.564,1.297-7.076V68.12z"/>
	<path d="M630.604,50.699v46.734h-12.896V50.699h-17.84V38.807h48.576v11.893H630.604z"/>
</g>
</svg>
